<?xml version="1.0" encoding="UTF-8" standalone="yes"?><svg xmlns="http://www.w3.org/2000/svg" xmlns:xlink="http://www.w3.org/1999/xlink" height="411px" style="width:960px;height:411px;" version="1.1" viewBox="0 0 960 411" width="960px"><defs><filter height="300%" id="f1" width="300%" x="-1" y="-1"><feGaussianBlur result="blurOut" stdDeviation="2.0"/><feColorMatrix in="blurOut" result="blurOut2" type="matrix" values="0 0 0 0 0 0 0 0 0 0 0 0 0 0 0 0 0 0 .4 0"/><feOffset dx="4.0" dy="4.0" in="blurOut2" result="blurOut3"/><feBlend in="SourceGraphic" in2="blurOut3" mode="normal"/></filter></defs><g><rect fill="#FEFECE" filter="url(#f1)" height="119.9727" style="stroke: #A80036; stroke-width: 1.5;" width="222" x="729.5" y="160"/><ellipse cx="744.5" cy="176" fill="#A9DCDF" rx="11" ry="11" style="stroke: #A80036; stroke-width: 1.0;"/><path d="M747.8594,181.5 L746.5313,177.7188 L742.5156,177.7188 L741.1875,181.5 L738.8594,181.5 L743.5625,168.5938 L745.4219,168.5938 L750.2031,181.5 L747.8594,181.5 Z M745.8281,175.7031 L744.7344,172.625 Q744.3281,171.4688 744.5313,171.4219 Q744.6563,171.6406 744.25,172.6406 L743.2188,175.7031 L745.8281,175.7031 Z "/><text fill="#000000" font-family="sans-serif" font-size="12" font-style="italic" lengthAdjust="spacingAndGlyphs" textLength="63" x="758.5" y="180.6641">BaseActivity</text><rect fill="#FFFFFF" height="17.7031" style="stroke: #000000; stroke-width: 1.0; stroke-dasharray: 2.0,2.0;" width="125" x="829.5" y="157"/><text fill="#000000" font-family="sans-serif" font-size="12" font-style="italic" lengthAdjust="spacingAndGlyphs" textLength="123" x="830.5" y="170.5156">T extend BasePresenter</text><line style="stroke: #A80036; stroke-width: 1.5;" x1="730.5" x2="950.5" y1="192" y2="192"/><polygon fill="none" points="740.5,199.6973,744.5,203.6973,740.5,207.6973,736.5,203.6973" style="stroke: #B38D22; stroke-width: 1.0;"/><text fill="#000000" font-family="sans-serif" font-size="11" lengthAdjust="spacingAndGlyphs" textLength="56" x="749.5" y="207.4727">T presenter</text><line style="stroke: #A80036; stroke-width: 1.5;" x1="730.5" x2="950.5" y1="214.3945" y2="214.3945"/><polygon fill="#FFFF44" points="740.5,222.0918,744.5,226.0918,740.5,230.0918,736.5,226.0918" style="stroke: #B38D22; stroke-width: 1.0;"/><text fill="#000000" font-family="sans-serif" font-size="11" lengthAdjust="spacingAndGlyphs" textLength="139" x="749.5" y="229.8672">void beforeSetContentView()</text><polygon fill="#FFFF44" points="740.5,236.4863,744.5,240.4863,740.5,244.4863,736.5,240.4863" style="stroke: #B38D22; stroke-width: 1.0;"/><text fill="#000000" font-family="sans-serif" font-size="11" lengthAdjust="spacingAndGlyphs" textLength="58" x="749.5" y="244.2617">void onInit()</text><polygon fill="#FFFF44" points="740.5,250.8809,744.5,254.8809,740.5,258.8809,736.5,254.8809" style="stroke: #B38D22; stroke-width: 1.0;"/><text fill="#000000" font-family="sans-serif" font-size="11" lengthAdjust="spacingAndGlyphs" textLength="80" x="749.5" y="258.6563">void onListener()</text><polygon fill="#FFFF44" points="740.5,265.2754,744.5,269.2754,740.5,273.2754,736.5,269.2754" style="stroke: #B38D22; stroke-width: 1.0;"/><text fill="#000000" font-family="sans-serif" font-size="11" lengthAdjust="spacingAndGlyphs" textLength="130" x="749.5" y="273.0508">abstract int getContentId()</text><rect fill="#FEFECE" filter="url(#f1)" height="91.1836" style="stroke: #A80036; stroke-width: 1.5;" width="262" x="149" y="8.5"/><ellipse cx="164" cy="24.5" fill="#ADD1B2" rx="11" ry="11" style="stroke: #A80036; stroke-width: 1.0;"/><path d="M166.9844,28.5469 L166.9844,30.5625 Q165.5156,31.1406 163.6563,31.1406 Q161.0469,31.1406 159.5547,29.4688 Q158.0625,27.7969 158.0625,24.5469 Q158.0625,21.4844 159.6484,19.7578 Q161.2344,18.0313 163.9219,18.0313 Q165.8594,18.0313 167.5781,18.875 L166.5938,20.8281 Q165.1094,20.0469 163.9219,20.0469 Q162.3438,20.0469 161.3438,21.2266 Q160.3438,22.4063 160.3438,24.6094 Q160.3438,26.875 161.25,27.9922 Q162.1563,29.1094 163.9219,29.1094 Q164.9375,29.1094 166.9844,28.5469 Z "/><text fill="#000000" font-family="sans-serif" font-size="12" lengthAdjust="spacingAndGlyphs" textLength="75" x="178" y="29.1641">BasePresenter</text><rect fill="#FFFFFF" height="17.7031" style="stroke: #000000; stroke-width: 1.0; stroke-dasharray: 2.0,2.0;" width="153" x="261" y="5.5"/><text fill="#000000" font-family="sans-serif" font-size="12" font-style="italic" lengthAdjust="spacingAndGlyphs" textLength="151" x="262" y="19.0156">T extends Contract.BaseView</text><line style="stroke: #A80036; stroke-width: 1.5;" x1="150" x2="410" y1="40.5" y2="40.5"/><polygon fill="none" points="160,48.1973,164,52.1973,160,56.1973,156,52.1973" style="stroke: #B38D22; stroke-width: 1.0;"/><text fill="#000000" font-family="sans-serif" font-size="11" lengthAdjust="spacingAndGlyphs" textLength="34" x="169" y="55.9727">T view;</text><line style="stroke: #A80036; stroke-width: 1.5;" x1="150" x2="410" y1="62.8945" y2="62.8945"/><ellipse cx="160" cy="75.5918" fill="#84BE84" rx="3" ry="3" style="stroke: #038048; stroke-width: 1.0;"/><text fill="#000000" font-family="sans-serif" font-size="11" lengthAdjust="spacingAndGlyphs" textLength="52" x="169" y="78.3672">void start()</text><ellipse cx="160" cy="89.9863" fill="#84BE84" rx="3" ry="3" style="stroke: #038048; stroke-width: 1.0;"/><text fill="#000000" font-family="sans-serif" font-size="11" lengthAdjust="spacingAndGlyphs" textLength="47" x="169" y="92.7617">void end()</text><rect fill="#FEFECE" filter="url(#f1)" height="48" style="stroke: #A80036; stroke-width: 1.5;" width="97" x="597.75" y="196"/><ellipse cx="612.75" cy="212" fill="#ADD1B2" rx="11" ry="11" style="stroke: #A80036; stroke-width: 1.0;"/><path d="M615.7344,216.0469 L615.7344,218.0625 Q614.2656,218.6406 612.4063,218.6406 Q609.7969,218.6406 608.3047,216.9688 Q606.8125,215.2969 606.8125,212.0469 Q606.8125,208.9844 608.3984,207.2578 Q609.9844,205.5313 612.6719,205.5313 Q614.6094,205.5313 616.3281,206.375 L615.3438,208.3281 Q613.8594,207.5469 612.6719,207.5469 Q611.0938,207.5469 610.0938,208.7266 Q609.0938,209.9063 609.0938,212.1094 Q609.0938,214.375 610,215.4922 Q610.9063,216.6094 612.6719,216.6094 Q613.6875,216.6094 615.7344,216.0469 Z "/><text fill="#000000" font-family="sans-serif" font-size="12" lengthAdjust="spacingAndGlyphs" textLength="65" x="626.75" y="216.6641">MainActivity</text><line style="stroke: #A80036; stroke-width: 1.5;" x1="598.75" x2="693.75" y1="228" y2="228"/><line style="stroke: #A80036; stroke-width: 1.5;" x1="598.75" x2="693.75" y1="236" y2="236"/><rect fill="#FEFECE" filter="url(#f1)" height="48" style="stroke: #A80036; stroke-width: 1.5;" width="213" x="173.75" y="196"/><ellipse cx="188.75" cy="212" fill="#ADD1B2" rx="11" ry="11" style="stroke: #A80036; stroke-width: 1.0;"/><path d="M191.7344,216.0469 L191.7344,218.0625 Q190.2656,218.6406 188.4063,218.6406 Q185.7969,218.6406 184.3047,216.9688 Q182.8125,215.2969 182.8125,212.0469 Q182.8125,208.9844 184.3984,207.2578 Q185.9844,205.5313 188.6719,205.5313 Q190.6094,205.5313 192.3281,206.375 L191.3438,208.3281 Q189.8594,207.5469 188.6719,207.5469 Q187.0938,207.5469 186.0938,208.7266 Q185.0938,209.9063 185.0938,212.1094 Q185.0938,214.375 186,215.4922 Q186.9063,216.6094 188.6719,216.6094 Q189.6875,216.6094 191.7344,216.0469 Z "/><text fill="#000000" font-family="sans-serif" font-size="12" lengthAdjust="spacingAndGlyphs" textLength="77" x="202.75" y="216.6641">MainPresenter</text><rect fill="#FFFFFF" height="17.7031" style="stroke: #000000; stroke-width: 1.0; stroke-dasharray: 2.0,2.0;" width="102" x="287.75" y="193"/><text fill="#000000" font-family="sans-serif" font-size="12" font-style="italic" lengthAdjust="spacingAndGlyphs" textLength="100" x="288.75" y="206.5156">MainContract.View</text><line style="stroke: #A80036; stroke-width: 1.5;" x1="174.75" x2="385.75" y1="228" y2="228"/><line style="stroke: #A80036; stroke-width: 1.5;" x1="174.75" x2="385.75" y1="236" y2="236"/><rect fill="#FEFECE" filter="url(#f1)" height="62.3945" style="stroke: #A80036; stroke-width: 1.5;" width="132" x="6" y="189"/><ellipse cx="48.45" cy="205" fill="#ADD1B2" rx="11" ry="11" style="stroke: #A80036; stroke-width: 1.0;"/><path d="M51.4344,209.0469 L51.4344,211.0625 Q49.9656,211.6406 48.1063,211.6406 Q45.4969,211.6406 44.0047,209.9688 Q42.5125,208.2969 42.5125,205.0469 Q42.5125,201.9844 44.0984,200.2578 Q45.6844,198.5313 48.3719,198.5313 Q50.3094,198.5313 52.0281,199.375 L51.0438,201.3281 Q49.5594,200.5469 48.3719,200.5469 Q46.7938,200.5469 45.7938,201.7266 Q44.7938,202.9063 44.7938,205.1094 Q44.7938,207.375 45.7,208.4922 Q46.6063,209.6094 48.3719,209.6094 Q49.3875,209.6094 51.4344,209.0469 Z "/><text fill="#000000" font-family="sans-serif" font-size="12" lengthAdjust="spacingAndGlyphs" textLength="39" x="68.55" y="209.6641">DataFill</text><line style="stroke: #A80036; stroke-width: 1.5;" x1="7" x2="137" y1="221" y2="221"/><line style="stroke: #A80036; stroke-width: 1.5;" x1="7" x2="137" y1="229" y2="229"/><ellipse cx="17" cy="241.6973" fill="#84BE84" rx="3" ry="3" style="stroke: #038048; stroke-width: 1.0;"/><text fill="#000000" font-family="sans-serif" font-size="11" lengthAdjust="spacingAndGlyphs" textLength="106" x="26" y="244.4727">static String getText()</text><rect fill="#FEFECE" filter="url(#f1)" height="62.3945" style="stroke: #A80036; stroke-width: 1.5;" width="124" x="218.5" y="340"/><ellipse cx="251.95" cy="356" fill="#B4A7E5" rx="11" ry="11" style="stroke: #A80036; stroke-width: 1.0;"/><path d="M254.2469,362.5 L249.1219,362.5 L249.1219,361.0313 L250.575,360.6875 L250.575,351.4688 L249.1219,351.125 L249.1219,349.6563 L254.2469,349.6563 L254.2469,351.125 L252.7938,351.4688 L252.7938,360.6875 L254.2469,361.0313 L254.2469,362.5 Z "/><text fill="#000000" font-family="sans-serif" font-size="12" font-style="italic" lengthAdjust="spacingAndGlyphs" textLength="51" x="270.05" y="360.6641">Presenter</text><line style="stroke: #A80036; stroke-width: 1.5;" x1="219.5" x2="341.5" y1="372" y2="372"/><line style="stroke: #A80036; stroke-width: 1.5;" x1="219.5" x2="341.5" y1="380" y2="380"/><text fill="#000000" font-family="sans-serif" font-size="11" lengthAdjust="spacingAndGlyphs" textLength="112" x="224.5" y="395.4727">void requestTextData()</text><rect fill="#FEFECE" filter="url(#f1)" height="62.3945" style="stroke: #A80036; stroke-width: 1.5;" width="140" x="422" y="189"/><ellipse cx="475.25" cy="205" fill="#B4A7E5" rx="11" ry="11" style="stroke: #A80036; stroke-width: 1.0;"/><path d="M477.5469,211.5 L472.4219,211.5 L472.4219,210.0313 L473.875,209.6875 L473.875,200.4688 L472.4219,200.125 L472.4219,198.6563 L477.5469,198.6563 L477.5469,200.125 L476.0938,200.4688 L476.0938,209.6875 L477.5469,210.0313 L477.5469,211.5 Z "/><text fill="#000000" font-family="sans-serif" font-size="12" font-style="italic" lengthAdjust="spacingAndGlyphs" textLength="25" x="495.75" y="209.6641">View</text><line style="stroke: #A80036; stroke-width: 1.5;" x1="423" x2="561" y1="221" y2="221"/><line style="stroke: #A80036; stroke-width: 1.5;" x1="423" x2="561" y1="229" y2="229"/><text fill="#000000" font-family="sans-serif" font-size="11" lengthAdjust="spacingAndGlyphs" textLength="128" x="428" y="244.4727">void showText(String text)</text><path d="M143.48,220 C153.541,220 163.603,220 173.664,220 " fill="none" style="stroke: #A80036; stroke-width: 1.0; stroke-dasharray: 7.0,7.0;"/><polygon fill="#A80036" points="138.219,220,147.219,224,143.219,220,147.219,216,138.219,220" style="stroke: #A80036; stroke-width: 1.0;"/><path d="M386.414,220 C396.482,220 406.551,220 416.619,220 " fill="none" style="stroke: #A80036; stroke-width: 1.0;"/><polygon fill="#A80036" points="421.884,220,412.884,216,416.884,220,412.884,224,421.884,220" style="stroke: #A80036; stroke-width: 1.0;"/><path d="M280,120.083 C280,146.895 280,176.231 280,195.937 " fill="none" style="stroke: #A80036; stroke-width: 1.0;"/><polygon fill="none" points="273,119.814,280,99.814,287,119.814,273,119.814" style="stroke: #A80036; stroke-width: 1.0;"/><path d="M280,244.281 C280,264.424 280,294.247 280,319.7923 " fill="none" style="stroke: #A80036; stroke-width: 1.0; stroke-dasharray: 7.0,7.0;"/><polygon fill="none" points="287,319.9373,280,339.9373,273,319.9373,287,319.9373" style="stroke: #A80036; stroke-width: 1.0;"/><path d="M694.5,220 C699.415,220 704.331,220 709.246,220 " fill="none" style="stroke: #A80036; stroke-width: 1.0;"/><polygon fill="none" points="709.454,213,729.454,220,709.454,227,709.454,213" style="stroke: #A80036; stroke-width: 1.0;"/><path d="M311.312,192.813 C338.596,171.047 380.306,142.209 422.5,130 C482.27,112.705 505.47,105.117 562.5,130 C592.975,143.297 617.316,173.809 631.681,195.617 " fill="none" style="stroke: #A80036; stroke-width: 1.0;"/><polygon fill="#A80036" points="307.393,195.97,316.9106,193.4372,311.2862,192.8326,311.8908,187.2082,307.393,195.97" style="stroke: #A80036; stroke-width: 1.0;"/><path d="M582.273,220 C587.343,220 592.414,220 597.485,220 " fill="none" style="stroke: #A80036; stroke-width: 1.0; stroke-dasharray: 7.0,7.0;"/><polygon fill="none" points="582.082,227,562.082,220,582.082,213,582.082,227" style="stroke: #A80036; stroke-width: 1.0;"/></g></svg>